<?xml version="1.0" encoding="utf-8"?>
<!-- Generator: Adobe Illustrator 18.0.0, SVG Export Plug-In . SVG Version: 6.00 Build 0)  -->
<!DOCTYPE svg PUBLIC "-//W3C//DTD SVG 1.1//EN" "http://www.w3.org/Graphics/SVG/1.1/DTD/svg11.dtd">
<svg version="1.1" id="Layer_1" xmlns="http://www.w3.org/2000/svg" xmlns:xlink="http://www.w3.org/1999/xlink" x="0px" y="0px"
	 viewBox="-8 -6 35 35" enable-background="new -8 -6 35 35" xml:space="preserve">
<title>Shopping-bag-2</title>
<desc>Created with Sketch.</desc>
<g id="Header" transform="translate(-75.000000, -10.000000)">
	<g id="Shopping-bag-2">
		<g transform="translate(75.947368, 10.000000)">
			<path id="Shape" d="M14.5,5.7V5.3C14.3,2.3,11.8,0,8.8,0S3.3,2.3,3.1,5.3v0.5h-3.4v15.5c0,1,0.8,1.7,1.8,1.7h14.2
				c1,0,1.8-0.8,1.8-1.7V5.7H14.5z M4.9,5.3c0.1-2,1.9-3.6,3.9-3.6s3.8,1.6,3.9,3.6v0.5H4.9V5.3z M15.7,21.3H1.5V7.5h14.2V21.3z"/>
		</g>
	</g>
</g>
<g>
	<path fill="#231F20" d="M26-5v33H-7V-5H26 M27-6H-8v35h35V-6L27-6z"/>
</g>
</svg>
