<?xml version="1.0" encoding="UTF-8" standalone="no"?>
<svg width="19px" height="23px" viewBox="0 0 19 23" version="1.1" xmlns="http://www.w3.org/2000/svg" xmlns:xlink="http://www.w3.org/1999/xlink">
    <!-- Generator: Sketch 48.2 (47327) - http://www.bohemiancoding.com/sketch -->
    <title>Shopping-bag-2</title>
    <desc>Created with Sketch.</desc>
    <defs></defs>
    <g id="Header" stroke="none" stroke-width="1" fill="none" fill-rule="evenodd" transform="translate(-75.000000, -10.000000)">
        <g fill="#FFFFFF" fill-rule="nonzero" id="Shopping-bag-2">
            <g transform="translate(75.947368, 10.000000)">
                <path d="M14.7827961,5.74613629 L14.7827961,5.2630281 C14.6140116,2.31015147 12.1078758,0 9.07327303,0 C6.03867024,0 3.53253446,2.31015147 3.36375,5.2630281 L3.36375,5.74613629 L0,5.74613629 L0,21.2746136 C0,22.2275182 0.792632723,23 1.77039474,23 L15.9335526,23 C16.9113146,23 17.7039474,22.2275182 17.7039474,21.2746136 L17.7039474,5.74613629 L14.7827961,5.74613629 Z M5.13414474,5.2630281 C5.27320961,3.24254677 6.99542664,1.67292716 9.07327303,1.67292716 C11.1511194,1.67292716 12.8733364,3.24254677 13.0124013,5.2630281 L13.0124013,5.74613629 L5.13414474,5.74613629 L5.13414474,5.2630281 Z M15.9335526,21.2746136 L1.77039474,21.2746136 L1.77039474,7.47152266 L15.9335526,7.47152266 L15.9335526,21.2746136 Z" id="Shape"></path>
            </g>
        </g>
    </g>
</svg>