<?xml version="1.0" encoding="UTF-8" standalone="no"?>
<!-- Created with Inkscape (http://www.inkscape.org/) -->

<svg
   xmlns:dc="http://purl.org/dc/elements/1.1/"
   xmlns:cc="http://creativecommons.org/ns#"
   xmlns:rdf="http://www.w3.org/1999/02/22-rdf-syntax-ns#"
   xmlns:svg="http://www.w3.org/2000/svg"
   xmlns="http://www.w3.org/2000/svg"
   xmlns:sodipodi="http://sodipodi.sourceforge.net/DTD/sodipodi-0.dtd"
   xmlns:inkscape="http://www.inkscape.org/namespaces/inkscape"
   width="16"
   height="24"
   id="svg6513"
   version="1.1"
   inkscape:version="0.92.2 2405546, 2018-03-11"
   sodipodi:docname="sqid.svg">
  <defs
     id="defs6515" />
  <sodipodi:namedview
     id="base"
     pagecolor="#ffffff"
     bordercolor="#666666"
     borderopacity="1.0"
     inkscape:pageopacity="0.0"
     inkscape:pageshadow="2"
     inkscape:zoom="15.839192"
     inkscape:cx="27.761249"
     inkscape:cy="9.1070864"
     inkscape:document-units="px"
     inkscape:current-layer="layer1"
     showgrid="false"
     fit-margin-top="0"
     fit-margin-left="0"
     fit-margin-right="0"
     fit-margin-bottom="0"
     inkscape:window-width="1920"
     inkscape:window-height="1055"
     inkscape:window-x="0"
     inkscape:window-y="25"
     inkscape:window-maximized="1" />
  <metadata
     id="metadata6518">
    <rdf:RDF>
      <cc:Work
         rdf:about="">
        <dc:format>image/svg+xml</dc:format>
        <dc:type
           rdf:resource="http://purl.org/dc/dcmitype/StillImage" />
        <dc:title></dc:title>
      </cc:Work>
    </rdf:RDF>
  </metadata>
  <g
     inkscape:label="Layer 1"
     inkscape:groupmode="layer"
     id="layer1"
     transform="translate(-203.84375,-434.34561)">
    <g
       id="g4575"
       transform="matrix(0,0.14325753,-0.34703058,0,362.21253,405.28914)">
      <path
         style="fill:none;stroke:#990000;stroke-width:4;stroke-linecap:round;stroke-linejoin:miter;stroke-miterlimit:4;stroke-dasharray:none;stroke-opacity:1"
         d="m 269.85661,435.33195 h 95.3572"
         id="path4048"
         inkscape:connector-curvature="0"
         sodipodi:nodetypes="cc" />
      <path
         style="fill:none;stroke:#339966;stroke-width:4;stroke-linecap:round;stroke-linejoin:miter;stroke-miterlimit:4;stroke-dasharray:none;stroke-opacity:1"
         d="m 270.08621,439.2995 h 31.0714 c 12.6672,0 14.1036,11.61675 30.8189,11.61675 10.7143,0 16.0714,-3.21429 28.2143,-3.21429"
         id="path4050"
         inkscape:connector-curvature="0"
         sodipodi:nodetypes="cccc" />
      <path
         sodipodi:nodetypes="cccc"
         inkscape:connector-curvature="0"
         id="path4052"
         d="m 269.87701,431.91625 h 31.0714 c 12.6672,0 14.6087,-6.56599 31.3239,-6.56599 h 31.0715"
         style="fill:none;stroke:#339966;stroke-width:4;stroke-linecap:round;stroke-linejoin:miter;stroke-miterlimit:4;stroke-dasharray:none;stroke-opacity:1" />
      <path
         style="fill:none;stroke:#006698;stroke-width:4;stroke-linecap:round;stroke-linejoin:miter;stroke-miterlimit:4;stroke-dasharray:none;stroke-opacity:1"
         d="m 269.87701,427.91625 h 31.0714 c 12.6672,0 14.6087,-11.86929 31.3239,-11.86929 h 26.4286"
         id="path4054"
         inkscape:connector-curvature="0"
         sodipodi:nodetypes="cccc" />
      <path
         sodipodi:nodetypes="scccccs"
         inkscape:connector-curvature="0"
         id="path4056"
         d="m 291.60611,433.94372 c 0,27.17834 -5.9961,20.89488 -31.6734,17.27513 -4.6347,-0.98067 -11.7015,-4.25025 -15.4641,-7.0765 -1.49,2.98213 0.5506,22.80569 -37.2364,-10.24591 36.609,-36.24793 35.6224,-13.2683 37.0798,-9.87347 3.7301,-2.6661 11.0621,-6.48859 15.7184,-7.26305 26.8939,-4.1912 31.5732,-8.94123 31.5757,17.1838 z"
         style="fill:#b1b1b1;fill-opacity:1;stroke:#4e4e4e;stroke-width:2.18700004;stroke-miterlimit:4;stroke-dasharray:none;stroke-opacity:1" />
      <path
         sodipodi:nodetypes="ccccc"
         inkscape:connector-curvature="0"
         id="path4108"
         d="m 291.60611,433.94372 c 0,27.17834 -5.9961,20.89488 -31.6734,17.27513 -4.6347,-0.98067 -11.7015,-4.25025 -15.4641,-7.0765 -1.49,2.98213 0.5506,22.80569 -37.2364,-10.24591 z"
         style="fill:#848484;fill-opacity:1;stroke:none" />
      <circle
         transform="matrix(1.6333334,0,0,1.6333334,-1635.8171,-496.27848)"
         id="path4080"
         style="fill:#696969;fill-opacity:1;stroke:none"
         cx="1142.7351"
         cy="562.18567"
         r="3.7880721" />
      <circle
         style="fill:#696969;fill-opacity:1;stroke:none"
         id="path4082"
         transform="matrix(1.2333334,0,0,1.2333334,-1157.7624,-250.19102)"
         cx="1142.7351"
         cy="562.18567"
         r="3.7880721" />
      <circle
         transform="matrix(1.2333334,0,0,1.2333334,-1127.4578,-257.76716)"
         id="path4084"
         style="fill:#696969;fill-opacity:1;stroke:none"
         cx="1142.7351"
         cy="562.18567"
         r="3.7880721" />
      <circle
         style="fill:#696969;fill-opacity:1;stroke:none"
         id="path4086"
         transform="matrix(1.2333334,0,0,1.2333334,-1141.0949,-263.57554)"
         cx="1142.7351"
         cy="562.18567"
         r="3.7880721" />
      <circle
         transform="matrix(1.2333334,0,0,1.2333334,-1177.4604,-246.15041)"
         id="path4088"
         style="fill:#696969;fill-opacity:1;stroke:none"
         cx="1142.7351"
         cy="562.18567"
         r="3.7880721" />
      <circle
         style="fill:#696969;fill-opacity:1;stroke:none"
         id="path4090"
         transform="matrix(1.2333334,0,0,1.2333334,-1159.5302,-267.11108)"
         cx="1142.7351"
         cy="562.18567"
         r="3.7880721" />
      <circle
         transform="matrix(1.2333334,0,0,1.2333334,-1194.1279,-261.3027)"
         id="path4092"
         style="fill:#696969;fill-opacity:1;stroke:none"
         cx="1142.7351"
         cy="562.18567"
         r="3.7880721" />
      <circle
         style="fill:#696969;fill-opacity:1;stroke:none"
         id="path4094"
         transform="matrix(1.6333334,0,0,1.6333334,-1628.4935,-483.90411)"
         cx="1142.7351"
         cy="562.18567"
         r="3.7880721" />
      <circle
         transform="matrix(0.76666674,0,0,0.76666674,-615.39458,7.1115175)"
         id="path4096"
         style="fill:#696969;fill-opacity:1;stroke:none"
         cx="1142.7351"
         cy="562.18567"
         r="3.7880721" />
      <circle
         style="fill:#696969;fill-opacity:1;stroke:none"
         id="path4098"
         transform="matrix(0.76666674,0,0,0.76666674,-589.32315,-3.6027725)"
         cx="1142.7351"
         cy="562.18567"
         r="3.7880721" />
      <circle
         transform="matrix(0.76666674,0,0,0.76666674,-617.53744,-7.5313425)"
         id="path4100"
         style="fill:#696969;fill-opacity:1;stroke:none"
         cx="1142.7351"
         cy="562.18567"
         r="3.7880721" />
      <circle
         style="fill:#696969;fill-opacity:1;stroke:none"
         id="path4102"
         transform="matrix(0.76666674,0,0,0.76666674,-652.1803,7.8257975)"
         cx="1142.7351"
         cy="562.18567"
         r="3.7880721" />
      <circle
         transform="matrix(0.76666674,0,0,0.76666674,-636.10887,-9.3170625)"
         id="path4104"
         style="fill:#696969;fill-opacity:1;stroke:none"
         cx="1142.7351"
         cy="562.18567"
         r="3.7880721" />
      <path
         style="fill:none;stroke:#4e4e4e;stroke-width:2.18700004;stroke-miterlimit:4;stroke-dasharray:none;stroke-opacity:1"
         d="m 291.60611,433.94372 c 0,27.17834 -5.9961,20.89488 -31.6734,17.27513 -4.6347,-0.98067 -11.7015,-4.25025 -15.4641,-7.0765 -1.49,2.98213 0.5506,22.80569 -37.2364,-10.24591 36.609,-36.24793 35.6224,-13.2683 37.0798,-9.87347 3.7301,-2.6661 11.0621,-6.48859 15.7184,-7.26305 26.8939,-4.1912 31.5732,-8.94123 31.5757,17.1838 z"
         id="path4106"
         inkscape:connector-curvature="0"
         sodipodi:nodetypes="scccccs" />
      <g
         transform="matrix(1.3579091,0,0,0.76083735,-1426.7345,145.17829)"
         id="g4060">
        <ellipse
           style="fill:#ffffff;fill-opacity:1;stroke:#4e4e4e;stroke-width:0.98382699;stroke-opacity:1"
           id="path4062"
           transform="matrix(2.2447829,-1.635561,0.85463238,1.1729701,33.778702,1116.3637)"
           cx="507.32144"
           cy="94.237183"
           rx="3.5714285"
           ry="7.0535712" />
        <ellipse
           transform="matrix(1.80026,-1.3116792,0.68539397,0.94069294,275.74221,974.01907)"
           id="path4064"
           style="fill:#006698;fill-opacity:1;stroke:none"
           cx="507.32144"
           cy="94.237183"
           rx="3.5714285"
           ry="7.0535712" />
        <ellipse
           style="fill:#339966;fill-opacity:1;stroke:none"
           id="path4066"
           transform="matrix(1.2856187,-0.93670868,0.48945996,0.67177645,555.79406,809.20875)"
           cx="507.32144"
           cy="94.237183"
           rx="3.5714285"
           ry="7.0535712" />
        <ellipse
           transform="matrix(0.9360762,-0.68203019,0.35638237,0.48912945,745.6653,697.21702)"
           id="path4068"
           style="fill:#000000;fill-opacity:1;stroke:none"
           cx="507.32144"
           cy="94.237183"
           rx="3.5714285"
           ry="7.0535712" />
      </g>
      <g
         transform="matrix(1.3579091,0,0,-0.76083735,-1426.7345,722.01546)"
         id="g4070">
        <ellipse
           transform="matrix(2.2447829,-1.635561,0.85463238,1.1729701,33.778702,1116.3637)"
           id="path4072"
           style="fill:#ffffff;fill-opacity:1;stroke:#4e4e4e;stroke-width:0.98382699;stroke-opacity:1"
           cx="507.32144"
           cy="94.237183"
           rx="3.5714285"
           ry="7.0535712" />
        <ellipse
           style="fill:#006698;fill-opacity:1;stroke:none"
           id="path4074"
           transform="matrix(1.80026,-1.3116792,0.68539397,0.94069294,275.74221,974.01907)"
           cx="507.32144"
           cy="94.237183"
           rx="3.5714285"
           ry="7.0535712" />
        <ellipse
           transform="matrix(1.2856187,-0.93670868,0.48945996,0.67177645,555.79406,809.20875)"
           id="path4076"
           style="fill:#339966;fill-opacity:1;stroke:none"
           cx="507.32144"
           cy="94.237183"
           rx="3.5714285"
           ry="7.0535712" />
        <ellipse
           style="fill:#000000;fill-opacity:1;stroke:none"
           id="path4078"
           transform="matrix(0.9360762,-0.68203019,0.35638237,0.48912945,745.6653,697.21702)"
           cx="507.32144"
           cy="94.237183"
           rx="3.5714285"
           ry="7.0535712" />
      </g>
    </g>
  </g>
</svg>
